PathFileType	4	(X/Y/Z)	Patient4_TMGait_0pt4_01_left_06.trc.trc
DataRate	CameraRate	NumFrames	NumMarkers	Units	OrigDataRate	OrigDataStartFrame	OrigNumFrames
74.866310160428	74.866310160428	4	33	mm	74.866310160428	71	       141
Frame#	Time	Sacral			L.Shoulder			Chest			R.Shoulder			Neck			R.ASIS			L.ASIS			R.Thigh.Superior			R.Thigh.Lateral			R.Thigh.Inferior			R.Patella			L.Thigh.Superior			L.Thigh.Lateral			L.Thigh.Inferior			L.Patella			L.Shank.Superior			L.Shank.Lateral			L.Shank.Inferior			R.Shank.Superior			R.Shank.Lateral			R.Shank.Inferior			R.Heel			R.Midfoot.Superior			R.Midfoot.Lateral			R.Toe			L.Heel			L.Midfoot.Lateral			L.Midfoot.Superior			L.Toe			L.Elbow			L.Wrist			R.Elbow			R.Wrist			
		X1	Y1	Z1	X2	Y2	Z2	X3	Y3	Z3	X4	Y4	Z4	X5	Y5	Z5	X6	Y6	Z6	X7	Y7	Z7	X8	Y8	Z8	X9	Y9	Z9	X10	Y10	Z10	X11	Y11	Z11	X12	Y12	Z12	X13	Y13	Z13	X14	Y14	Z14	X15	Y15	Z15	X16	Y16	Z16	X17	Y17	Z17	X18	Y18	Z18	X19	Y19	Z19	X20	Y20	Z20	X21	Y21	Z21	X22	Y22	Z22	X23	Y23	Z23	X24	Y24	Z24	X25	Y25	Z25	X26	Y26	Z26	X27	Y27	Z27	X28	Y28	Z28	X29	Y29	Z29	X30	Y30	Z30	X31	Y31	Z31	X32	Y32	Z32	X33	Y33	Z33	

71	7.555000000000	817.893947148412	1002.429654684212	440.114648958735	1014.557438349008	1421.048370775278	249.618808551469	1096.079753666245	1366.179406101874	426.688529167823	990.740347915160	1449.163802788971	584.331437142361	979.680014812407	1493.366968428466	398.769847497638	1037.841276800409	944.287083285240	576.698942251260	1052.236498796443	963.866013114582	302.148630594361	1107.917435668717	761.931807863857	549.925726843793	1059.224336261668	643.217433933017	624.762958415896	1146.061377817845	600.571076707628	546.353986081449	1174.231843966913	512.159446690579	566.436384937731	1050.995825494470	736.067807956276	326.053741209464	936.858491780528	638.148131411127	262.837904076225	1000.115664325929	546.458077439956	325.452418796263	985.626746704548	480.527039659443	335.180056908124	953.911530454883	413.603001204837	327.689701065053	851.305170118454	308.115642436986	280.057320388148	894.935245757574	192.997065332462	352.371516776029	1144.495385377704	423.324385575436	576.586650430234	1072.920061423902	321.676060740873	642.556958110120	1125.286175848926	224.257857937660	592.050098750173	1003.016029281953	50.542166675838	569.488195716800	1171.407392503065	108.398262515380	604.557883987766	1087.027322874418	43.187542040836	643.581334003675	1292.402829671224	62.478762724720	633.794158676437	756.493230121877	41.337631131556	399.180965557879	831.305317341454	35.568780204693	320.070829192604	915.621953060447	96.069091547386	345.944692308451	1043.602475826142	40.362342494578	320.988496171955	1048.858437224950	1072.425712841837	130.801633273939	1262.615726678405	925.975559272707	162.475106873395	848.244940743701	1141.270520956782	706.981091103397	838.840185717302	880.869279665188	734.361216164381	
72	7.568357142857	818.235689172059	1001.420730226039	442.557234811327	1014.059526717906	1419.636849601750	251.473754728807	1095.850428234953	1365.324923246733	428.575026289761	990.546706543938	1448.450247591770	586.191464033140	979.272829219928	1492.279919750166	400.442778963454	1038.522076432775	942.787864694310	578.823987769140	1052.603006532342	963.311959477573	304.245919724300	1108.187649136209	759.648828248291	551.845887643889	1057.962934203876	640.734345925014	625.598472068759	1145.012566836497	598.267890087931	547.362464541949	1172.214881164939	510.155663144839	566.332426256487	1049.688769274626	735.126608793534	327.480117745736	934.688251467666	638.136768627847	264.155356593404	997.248919684968	545.867979867812	326.457853093121	982.277083165786	479.922447716386	336.107946241671	950.254965741738	413.280016586194	328.376037098099	846.985748095995	308.473903673583	280.600748744335	890.047006518249	192.885514331423	352.534367484820	1143.317292559550	421.110727766975	576.438513287074	1072.690912725037	318.734517979406	642.236489958477	1125.444045457726	221.914507436129	591.148765867511	1004.088117583241	48.035422365500	568.528377681433	1172.280452511881	106.874457159504	603.427259975263	1088.143747846637	41.346110495390	642.560909316929	1293.455459900794	61.421936395008	632.347263378772	751.090506276106	41.527662071461	399.041435328498	825.923558770976	35.584010123958	320.017271324108	910.248860298791	96.088617438703	345.884281895410	1038.193815752058	40.316236507121	320.960654930428	1050.105533317659	1070.721198627397	134.115008325894	1266.986710423195	928.938441301428	164.673473723162	849.613431143063	1139.828211350008	709.047126487471	843.489786375064	879.018335625169	734.749607073821	
73	7.581714285714	818.648066140905	1000.413833346253	445.232014526682	1013.497700973352	1418.339468703284	253.581024966716	1095.688777000565	1364.519305577685	430.633769392009	990.479782029075	1447.677205265885	588.327059388131	978.899820036938	1491.229553311785	402.416906702226	1039.419620713533	941.330529137132	580.984693664052	1052.855262143309	962.725630758416	306.397407630784	1108.773888593780	757.395228812814	553.740619125557	1056.946982881698	638.341118346493	626.383907267279	1144.190596229229	596.067718316158	548.262934264625	1170.308132264992	508.076403875686	566.149891431740	1048.557238588197	734.192529737253	329.037305305505	932.744224671866	638.106823144210	265.616965662781	994.661249407157	545.269172982236	327.606628701976	979.225857730077	479.260075438711	337.181965716042	946.840826120718	412.907611716293	329.190142654840	842.854224030759	308.869448532846	281.232980416412	885.233437959335	192.762020152410	352.735168349187	1141.941203457765	418.838557013296	576.318046289629	1071.908134035709	316.020863677784	641.973905487738	1124.626582811187	219.583951388558	590.308018056836	1003.499483413216	46.058278528749	567.684037858943	1171.720163448687	105.358319564647	602.515063162776	1087.532157265373	39.846381605428	641.727168726474	1292.893572881614	59.911884539388	631.163631294188	745.689713555839	41.780256269890	398.897202713499	820.548215331855	35.633862367337	319.964732978515	904.885352228129	96.124277936812	345.830157896985	1032.785648673172	40.255366471115	320.931429024773	1051.048714243487	1069.108969355678	137.605932059167	1270.629663720517	931.513691670323	166.956317560566	851.598405725511	1138.119574348987	711.571591245374	849.504806180124	876.953869225293	735.538406077116	
74	7.595071428571	819.125494848203	999.446406689976	448.132075057718	1012.881151328224	1417.200730461774	255.940169214912	1095.605049261431	1363.794659354322	432.862440517740	990.560439944333	1446.881263512840	590.737241546221	978.581456215399	1490.260235247605	404.696118455759	1040.507648973195	939.968358516634	583.185881367368	1053.021424662122	962.127531399375	308.605385586638	1109.631131524864	755.264967645621	555.583433239454	1056.215359713901	636.136537746452	627.139716670533	1143.607226202233	594.053596741664	549.059199719530	1168.553564324547	506.013652833364	565.915640908832	1047.640330874657	733.304848045352	330.713922295192	931.073180392706	638.068645313617	267.231478666168	992.428943413307	544.679388737360	328.894490645590	976.564965199640	478.540688166048	338.388733046143	943.735060588699	412.490823320011	330.129535439308	838.953237343519	309.328874208533	281.963618643800	880.521947618216	192.642571048743	352.972586616355	1140.431247773566	416.599439302470	576.229382316246	1070.686136262457	313.598477189807	641.803330198023	1122.950691715397	217.341994445679	589.545187548916	1001.428884830533	44.586340212109	566.991498748018	1169.869209499059	103.924141133924	601.822876302453	1085.396647879614	38.690359302045	641.096903755214	1290.912265556655	58.101724022367	630.230083987321	740.299763317865	42.134332114575	398.749185206602	815.186515766912	35.737132115115	319.913336210682	899.549839569418	96.183387989918	345.774802330947	1027.384266960231	40.175756480318	320.898305977745	1051.671465309258	1067.635242308013	141.236125228350	1273.520340781510	933.677454935680	169.324022867091	854.174105493422	1136.202694895448	714.518147446259	856.815901786522	874.778735442305	736.747287831758	
